<?xml version="1.0" standalone="no"?>
<!DOCTYPE svg PUBLIC "-//W3C//DTD SVG 20010904//EN"
 "http://www.w3.org/TR/2001/REC-SVG-20010904/DTD/svg10.dtd">
<svg version="1.0" xmlns="http://www.w3.org/2000/svg"
 width="1296.000000pt" height="1043.000000pt" viewBox="0 0 1296.000000 1043.000000"
 preserveAspectRatio="xMidYMid meet">

<g transform="translate(0.000000,1043.000000) scale(0.100000,-0.100000)"
fill="#000000" stroke="none">
<path d="M3443 10388 c-9 -38 -85 -334 -198 -773 -33 -129 -57 -220 -195 -760
-27 -104 -65 -253 -85 -330 -90 -344 -89 -338 -90 -505 0 -134 3 -166 24 -235
91 -310 322 -541 723 -723 130 -59 734 -330 1078 -485 129 -58 276 -123 325
-145 50 -21 180 -80 290 -129 330 -150 682 -308 815 -366 69 -31 199 -89 290
-131 90 -42 165 -76 167 -76 12 0 -8 35 -85 147 -285 414 -376 605 -403 847
-20 178 -9 235 172 936 53 204 116 449 179 695 34 132 79 308 100 390 136 528
166 644 295 1150 42 165 90 351 106 412 16 62 29 115 29 118 0 3 -793 5 -1763
5 l-1764 0 -10 -42z"/>
<path d="M9519 10426 c-3 -3 -52 -11 -108 -16 -220 -23 -427 -96 -563 -200
-241 -182 -411 -526 -528 -1070 -4 -19 -35 -143 -68 -275 -33 -132 -79 -316
-102 -410 -22 -93 -45 -186 -50 -205 -5 -19 -70 -291 -145 -605 -147 -615
-313 -1291 -350 -1421 -78 -271 -48 -548 82 -767 85 -145 268 -312 461 -421
73 -41 607 -283 1462 -663 69 -31 223 -100 343 -154 120 -55 220 -99 222 -99
2 0 107 -47 232 -104 125 -57 255 -115 288 -129 33 -14 179 -80 324 -146 146
-66 266 -119 268 -117 2 1 -61 99 -140 217 -178 266 -219 335 -269 450 -63
148 -92 281 -91 429 0 136 5 167 93 510 27 107 86 344 130 525 45 182 110 447
145 590 35 143 89 364 120 490 110 451 247 1003 292 1180 25 99 49 196 53 215
4 19 16 71 28 115 21 81 29 113 146 575 141 557 161 615 261 771 57 89 158
194 278 290 108 87 366 261 524 354 57 33 103 63 103 66 0 10 -3432 35 -3441
25z"/>
<path d="M1451 7322 c2 -5 54 -54 114 -108 481 -432 723 -705 784 -887 38
-113 32 -165 -70 -565 -118 -462 -111 -435 -154 -592 -20 -74 -45 -166 -55
-205 -25 -94 -56 -207 -131 -475 -34 -124 -70 -254 -80 -290 -9 -36 -28 -105
-42 -155 -175 -631 -208 -762 -202 -798 3 -18 -3 -65 -14 -107 -40 -155 -82
-311 -136 -515 -31 -115 -67 -250 -80 -300 -13 -49 -32 -124 -43 -165 -11 -41
-34 -127 -51 -190 -16 -63 -46 -176 -66 -250 -75 -281 -98 -366 -106 -403 -98
-411 -204 -607 -437 -800 -137 -114 -385 -281 -614 -413 -37 -22 -67 -42 -68
-45 0 -4 206 -10 458 -13 251 -4 741 -11 1087 -16 1834 -27 1934 -26 2163 21
411 84 664 343 831 852 16 51 64 223 106 382 42 160 85 322 95 360 10 39 31
115 45 170 15 55 35 132 45 170 10 39 51 192 90 340 40 149 78 293 85 320 49
185 79 300 96 365 11 41 40 152 65 245 25 94 56 211 69 260 13 50 38 142 55
205 29 110 45 171 104 395 15 55 49 183 77 285 53 197 68 282 69 397 l0 71 93
31 c115 38 298 75 490 100 134 17 169 25 156 34 -2 2 -49 24 -104 49 -93 44
-183 87 -824 399 -134 66 -246 119 -248 119 -3 0 -42 22 -87 49 -80 49 -438
226 -686 341 -69 32 -170 79 -225 105 -55 26 -176 82 -270 125 -93 43 -300
143 -460 222 -349 174 -439 216 -497 227 -42 8 -248 99 -531 235 -77 36 -141
66 -143 66 -2 0 -99 45 -216 101 -117 56 -251 119 -298 141 -47 23 -120 58
-164 80 -43 22 -76 35 -75 30z"/>
<path d="M7066 4018 c-98 -392 -307 -1235 -466 -1873 -436 -1753 -530 -2131
-530 -2138 0 -4 793 -7 1763 -7 l1762 0 89 362 c49 200 115 469 147 598 32
129 90 366 129 525 39 160 93 380 120 490 27 110 81 331 120 490 39 160 100
407 136 550 35 143 64 267 64 275 0 12 -409 205 -765 361 -22 10 -292 132
-600 273 -309 140 -617 279 -685 309 -69 30 -343 154 -609 276 -266 121 -487
221 -491 221 -4 0 -87 -321 -184 -712z"/>
</g>
</svg>
